# xmcd CD database file
# Copyright (C) 1995-1998 Ti Kan
#
# Track frame offsets:
#	182
#	12867
#	23610
#	31090
#	39870
#	48277
#	57297
#	67677
#	73955
#	83300
#	94162
#	103517
#	116015
#	122985
#	128590
#	146855
#	157335
#	170882
#	177012
#	192255
#	212747
#	218587
#	225065
#	232487
#
# Disc length: 3275 seconds
#
# Revision: 1
# Processed by: cddbd v1.4PL0 Copyright (c) Steve Scherf et al.
# Submitted via: CDex 1.30Release
#
DISCID=430cc918
DTITLE=Prague Klezmerim - Yiddish Blues
DYEAR=1996
DGENRE=Blues
TTITLE0=Lebedik Un Freylech (Gilrod and Sandler)
TTITLE1=Sherele (anonym)
TTITLE2=Hora Chadera (trad.)
TTITLE3=Mezareh Israel (anonym)
TTITLE4=Oy Yossel Yossel (trad.)
TTITLE5=Al Kanfe Hakesef (N. Shemer)
TTITLE6=Hora Chasidit (anonym)
TTITLE7=Od Yishama (S. Carlebach)
TTITLE8=Nigun (L. Weiner)
TTITLE9=Lach Jerushalaim (A. Rubinstein)
TTITLE10=Haroa Haktana (M. Willensky)
TTITLE11=Nigun II. (anonym)
TTITLE12=Ele Chamda Libi (trad.)
TTITLE13=Hora Nirkoda (anonym)
TTITLE14=Adoyn Oylom (U. Hitman)
TTITLE15=Turetskaya (anonym)
TTITLE16=Fun Tashlich (trad.)
TTITLE17=Hora Medura (Y. Velba)
TTITLE18=On Sabbath Day (trad.)
TTITLE19=Clarinetango (R. Pansera)
TTITLE20=Rav Brachot (M. Shelem)
TTITLE21=Mechol Halahat (anonym)
TTITLE22=Yiddish Blues (J. Frankel)
TTITLE23=Grine Kuzine (A. Schwartz)
EXTD=YEAR: 1996 ID3G:   0
EXTT0=
EXTT1=
EXTT2=
EXTT3=
EXTT4=
EXTT5=
EXTT6=
EXTT7=
EXTT8=
EXTT9=
EXTT10=
EXTT11=
EXTT12=
EXTT13=
EXTT14=
EXTT15=
EXTT16=
EXTT17=
EXTT18=
EXTT19=
EXTT20=
EXTT21=
EXTT22=
EXTT23=
PLAYORDER=
